<svg width="290" height="64" viewBox="0 0 290 64" fill="none" xmlns="http://www.w3.org/2000/svg">
<path d="M4.87714 34.0114V59.4286H37.0847V64H0V0H36.6246V4.57143H4.87714V29.44H34.324V34.0114H4.87714Z" fill="#2E2E2E"/>
<path d="M70.2311 31.0857L91.6721 64H86.0588L67.4705 35.4743L48.8821 64H43.1768L64.6178 31.0857L44.3731 0H49.9864L67.4705 26.7886L84.8625 0H90.4758L70.2311 31.0857Z" fill="#2E2E2E"/>
<path d="M144.147 28.8V0H149.024V64H144.147V33.3714H106.694V64H101.817V0H106.694V28.8H144.147Z" fill="#2E2E2E"/>
<path d="M213.487 64H208.334L202.076 47.7257H169.777L163.519 64H158.366L183.396 0H188.549L213.487 64ZM185.973 5.94286L171.617 43.1543H200.328L185.973 5.94286Z" fill="#2E2E2E"/>
<path d="M222.865 64V0H227.742V64H222.865Z" fill="#2E2E2E"/>
<path d="M290 64H284.387L268.927 37.76H248.59V64H243.713V0H269.111C274.326 0 278.804 1.85905 282.546 5.57714C286.288 9.29524 288.16 13.7448 288.16 18.9257C288.16 23.1924 286.81 27.0324 284.111 30.4457C281.473 33.7981 278.099 36.0229 273.988 37.12L290 64ZM269.111 4.57143H248.59V33.1886H269.111C273.037 33.1886 276.381 31.8171 279.141 29.0743C281.902 26.2705 283.282 22.8876 283.282 18.9257C283.282 14.9638 281.902 11.581 279.141 8.77714C276.381 5.97333 273.037 4.57143 269.111 4.57143Z" fill="#2E2E2E"/>
</svg>
