<svg width="104" height="46" viewBox="0 0 104 46" fill="none" xmlns="http://www.w3.org/2000/svg">
<path d="M2.45683 23.6693V32.3899H13.8444V33.9583H0.732422V12H13.6818V13.5685H2.45683V22.1008H12.8684V23.6693H2.45683Z" fill="#2E2E2E"/>
<path d="M25.564 22.6655L33.1449 33.9583H31.1602L24.5879 24.1712L18.0157 33.9583H15.9984L23.5793 22.6655L16.4214 12H18.4061L24.5879 21.1911L30.7372 12H32.7219L25.564 22.6655Z" fill="#2E2E2E"/>
<path d="M51.6983 21.8813V12H53.4227V33.9583H51.6983V23.4497H38.4561V33.9583H36.7317V12H38.4561V21.8813H51.6983Z" fill="#2E2E2E"/>
<path d="M76.215 33.9583H74.3929L72.1805 28.3746H60.7603L58.5479 33.9583H56.7259L65.5757 12H67.3977L76.215 33.9583ZM66.4867 14.039L61.4111 26.8062H71.5623L66.4867 14.039Z" fill="#2E2E2E"/>
<path d="M79.5306 33.9583V12H81.255V33.9583H79.5306Z" fill="#2E2E2E"/>
<path d="M103.268 33.9583H101.283L95.8169 24.9554H88.6264V33.9583H86.902V12H95.882C97.7257 12 99.3091 12.6378 100.632 13.9135C101.955 15.1892 102.617 16.7158 102.617 18.4934C102.617 19.9573 102.14 21.2748 101.185 22.4459C100.253 23.5961 99.0596 24.3594 97.6064 24.7358L103.268 33.9583ZM95.882 13.5685H88.6264V23.387H95.882C97.2702 23.387 98.4523 22.9164 99.4284 21.9754C100.404 21.0134 100.893 19.8527 100.893 18.4934C100.893 17.1341 100.404 15.9734 99.4284 15.0114C98.4523 14.0494 97.2702 13.5685 95.882 13.5685Z" fill="#2E2E2E"/>
<path d="M69.554 40.611C69.9837 40.7696 70.3235 41.0227 70.5735 41.3703C70.8313 41.7178 70.9602 42.1145 70.9602 42.5603C70.9602 43.1572 70.7415 43.6672 70.304 44.0903C69.8665 44.5134 69.3392 44.725 68.722 44.725H65.1831V36.7916H68.4525C69.0462 36.7916 69.554 36.9956 69.9759 37.4036C70.3978 37.8116 70.6087 38.3027 70.6087 38.877C70.6087 39.2547 70.5149 39.5985 70.3274 39.9083C70.14 40.2105 69.8821 40.4447 69.554 40.611ZM68.4525 37.3583H65.8042V40.3956H68.4525C68.8744 40.3956 69.2337 40.2483 69.5306 39.9536C69.8353 39.6438 69.9876 39.285 69.9876 38.877C69.9876 38.4614 69.8353 38.1063 69.5306 37.8116C69.2415 37.5094 68.8822 37.3583 68.4525 37.3583ZM65.8042 44.1583H68.722C69.1595 44.1583 69.5384 44.0034 69.8587 43.6936C70.179 43.3687 70.3392 42.991 70.3392 42.5603C70.3392 42.1221 70.179 41.7481 69.8587 41.4383C69.5462 41.121 69.1673 40.9623 68.722 40.9623H65.8042V44.1583Z" fill="#2E2E2E"/>
<path d="M78.6597 44.725H78.0035L77.2066 42.7076H73.0935L72.2967 44.725H71.6404L74.8278 36.7916H75.484L78.6597 44.725ZM75.1559 37.5283L73.3279 42.141H76.984L75.1559 37.5283Z" fill="#2E2E2E"/>
<path d="M78.5203 36.7916H84.3091V37.3583H81.7311V44.725H81.0983V37.3583H78.5203V36.7916Z" fill="#2E2E2E"/>
<path d="M85.4814 42.073V36.7916H86.1025V42.073C86.1025 42.7454 86.3095 43.2818 86.7236 43.6823C87.1454 44.0752 87.7313 44.2716 88.4813 44.2716C89.2313 44.2716 89.8172 44.0752 90.239 43.6823C90.6609 43.2818 90.8718 42.7454 90.8718 42.073V36.7916H91.4929V42.073C91.4929 42.9041 91.2156 43.5765 90.6609 44.0903C90.1141 44.5965 89.3875 44.8496 88.4813 44.8496C87.5751 44.8496 86.8486 44.5965 86.3017 44.0903C85.7548 43.5841 85.4814 42.9116 85.4814 42.073Z" fill="#2E2E2E"/>
<path d="M100.047 36.7916H100.832V44.725H100.211V37.6756L97.1762 42.549H97.0707L94.0357 37.6756V44.725H93.4146V36.7916H94.188L97.1176 41.4836L100.047 36.7916Z" fill="#2E2E2E"/>
<path d="M102.867 44.725V36.7916H103.488V44.725H102.867Z" fill="#2E2E2E"/>
</svg>
